<svg width="87" height="95" viewBox="0 0 87 95" fill="none" xmlns="http://www.w3.org/2000/svg">
<g clip-path="url(#clip0_1_86)">
<path d="M82.36 7.31676V90.1801H31.784V7.31676L53.4373 24.989C54.479 25.8043 55.757 26.2464 57.072 26.2464C58.387 26.2464 59.665 25.8043 60.7067 24.989L82.36 7.31676ZM29.6187 0.169307C29.3032 0.167661 28.9906 0.229254 28.6986 0.350556C28.4067 0.471859 28.1412 0.650485 27.9173 0.876198C27.6617 1.1148 27.4602 1.40693 27.3267 1.7324C27.1932 2.05787 27.1308 2.4089 27.144 2.76124V46.2743V92.2223C27.1437 92.9171 27.4101 93.5847 27.8866 94.0833C28.3631 94.582 29.0121 94.8723 29.696 94.8927H84.448C85.1248 94.8927 85.7739 94.6197 86.2525 94.1336C86.7311 93.6475 87 92.9882 87 92.3008V2.76124C87.019 2.06474 86.7692 1.38826 86.304 0.876198C85.8354 0.446208 85.2336 0.196148 84.6027 0.169307C84.0395 0.162373 83.492 0.357019 83.056 0.719111L57.768 21.2975C57.5672 21.4505 57.323 21.5331 57.072 21.5331C56.821 21.5331 56.5768 21.4505 56.376 21.2975L31.088 0.719111C30.8917 0.532312 30.6606 0.387403 30.4082 0.292965C30.1558 0.198526 29.8873 0.156477 29.6187 0.169307Z" fill="white"/>
<path d="M57.072 94.8927V71.5653" stroke="white" stroke-width="6" stroke-miterlimit="10"/>
<path d="M57.072 27.6595L81.2 47.531L57.072 67.481L32.944 47.531L57.072 27.6595ZM57.072 21.5331L27.144 46.1957V48.8662L57.072 73.5289L87 48.8662V46.1957L57.072 21.5331Z" fill="white"/>
<path d="M64.5733 43.8395V50.5942" stroke="white" stroke-miterlimit="10"/>
<path d="M66.6613 41.7188H62.408V52.7935H66.6613V41.7188Z" fill="white" stroke="white" stroke-miterlimit="10"/>
<path d="M50.1893 43.8395V50.5942" stroke="white" stroke-miterlimit="10"/>
<path d="M52.3547 41.7188H48.1013V52.7935H52.3547V41.7188Z" fill="white" stroke="white" stroke-miterlimit="10"/>
<path d="M4.64001 30.0943L27.144 48.8662V90.1801H4.64001V30.0943ZM2.39734 22.8683C2.04936 22.8718 1.70631 22.9523 1.39201 23.104C0.978091 23.2982 0.627281 23.6082 0.380728 23.9977C0.134175 24.3873 0.00210375 24.8401 5.743e-06 25.3032V92.3794C-0.0177237 92.5663 0.00879075 92.7548 0.0773391 92.9292C0.073785 92.9717 0.0788096 93.0145 0.092106 93.0551C0.105402 93.0956 0.126691 93.1329 0.154672 93.1648V93.4004L0.309339 93.636C0.386672 93.7146 0.386672 93.7146 0.386672 93.7931L0.696006 94.1859L1.08267 94.4215H1.16001L1.46934 94.5786H31.784V46.5885L3.94401 23.4181C3.50804 23.0561 2.96047 22.8614 2.39734 22.8683Z" fill="white"/>
<path d="M27.9947 49.0233L2.39734 70.23" stroke="white" stroke-width="6" stroke-miterlimit="10"/>
</g>
<defs>
<clipPath id="clip0_1_86">
<rect width="87" height="94.7234" fill="white" transform="translate(0 0.169312)"/>
</clipPath>
</defs>
</svg>
